<?xml version="1.0" encoding="UTF-8"?>
<!DOCTYPE svg PUBLIC "-//W3C//DTD SVG 1.1//EN" "http://www.w3.org/Graphics/SVG/1.1/DTD/svg11.dtd">
<svg version="1.2" width="211.1mm" height="8.61mm" viewBox="5890 2705 21110 861" preserveAspectRatio="xMidYMid" fill-rule="evenodd" stroke-width="28.222" stroke-linejoin="round" xmlns="http://www.w3.org/2000/svg" xmlns:ooo="http://xml.openoffice.org/svg/export" xmlns:xlink="http://www.w3.org/1999/xlink" xmlns:presentation="http://sun.com/xmlns/staroffice/presentation" xmlns:smil="http://www.w3.org/2001/SMIL20/" xmlns:anim="urn:oasis:names:tc:opendocument:xmlns:animation:1.0" xmlns:svg="urn:oasis:names:tc:opendocument:xmlns:svg-compatible:1.0" xml:space="preserve">
 <defs class="EmbeddedBulletChars">
  <g id="bullet-char-template-57356" transform="scale(0.00048828125,-0.00048828125)">
   <path d="M 580,1141 L 1163,571 580,0 -4,571 580,1141 Z"/>
  </g>
  <g id="bullet-char-template-57354" transform="scale(0.00048828125,-0.00048828125)">
   <path d="M 8,1128 L 1137,1128 1137,0 8,0 8,1128 Z"/>
  </g>
  <g id="bullet-char-template-10146" transform="scale(0.00048828125,-0.00048828125)">
   <path d="M 174,0 L 602,739 174,1481 1456,739 174,0 Z M 1358,739 L 309,1346 659,739 1358,739 Z"/>
  </g>
  <g id="bullet-char-template-10132" transform="scale(0.00048828125,-0.00048828125)">
   <path d="M 2015,739 L 1276,0 717,0 1260,543 174,543 174,936 1260,936 717,1481 1274,1481 2015,739 Z"/>
  </g>
  <g id="bullet-char-template-10007" transform="scale(0.00048828125,-0.00048828125)">
   <path d="M 0,-2 C -7,14 -16,27 -25,37 L 356,567 C 262,823 215,952 215,954 215,979 228,992 255,992 264,992 276,990 289,987 310,991 331,999 354,1012 L 381,999 492,748 772,1049 836,1024 860,1049 C 881,1039 901,1025 922,1006 886,937 835,863 770,784 769,783 710,716 594,584 L 774,223 C 774,196 753,168 711,139 L 727,119 C 717,90 699,76 672,76 641,76 570,178 457,381 L 164,-76 C 142,-110 111,-127 72,-127 30,-127 9,-110 8,-76 1,-67 -2,-52 -2,-32 -2,-23 -1,-13 0,-2 Z"/>
  </g>
  <g id="bullet-char-template-10004" transform="scale(0.00048828125,-0.00048828125)">
   <path d="M 285,-33 C 182,-33 111,30 74,156 52,228 41,333 41,471 41,549 55,616 82,672 116,743 169,778 240,778 293,778 328,747 346,684 L 369,508 C 377,444 397,411 428,410 L 1163,1116 C 1174,1127 1196,1133 1229,1133 1271,1133 1292,1118 1292,1087 L 1292,965 C 1292,929 1282,901 1262,881 L 442,47 C 390,-6 338,-33 285,-33 Z"/>
  </g>
  <g id="bullet-char-template-9679" transform="scale(0.00048828125,-0.00048828125)">
   <path d="M 813,0 C 632,0 489,54 383,161 276,268 223,411 223,592 223,773 276,916 383,1023 489,1130 632,1184 813,1184 992,1184 1136,1130 1245,1023 1353,916 1407,772 1407,592 1407,412 1353,268 1245,161 1136,54 992,0 813,0 Z"/>
  </g>
  <g id="bullet-char-template-8226" transform="scale(0.00048828125,-0.00048828125)">
   <path d="M 346,457 C 273,457 209,483 155,535 101,586 74,649 74,723 74,796 101,859 155,911 209,963 273,989 346,989 419,989 480,963 531,910 582,859 608,796 608,723 608,648 583,586 532,535 482,483 420,457 346,457 Z"/>
  </g>
  <g id="bullet-char-template-8211" transform="scale(0.00048828125,-0.00048828125)">
   <path d="M -4,459 L 1135,459 1135,606 -4,606 -4,459 Z"/>
  </g>
  <g id="bullet-char-template-61548" transform="scale(0.00048828125,-0.00048828125)">
   <path d="M 173,740 C 173,903 231,1043 346,1159 462,1274 601,1332 765,1332 928,1332 1067,1274 1183,1159 1299,1043 1357,903 1357,740 1357,577 1299,437 1183,322 1067,206 928,148 765,148 601,148 462,206 346,322 231,437 173,577 173,740 Z"/>
  </g>
 </defs>
 <g class="Page">
  <g class="Group">
   <g class="com.sun.star.drawing.ClosedBezierShape">
    <g id="id3">
     <rect class="BoundingBox" stroke="none" fill="none" x="5890" y="2753" width="554" height="804"/>
     <path fill="rgb(255,255,255)" stroke="none" d="M 6245,3555 C 6177,3470 6109,3385 6042,3300 6042,3385 6042,3470 6042,3555 5991,3555 5941,3555 5890,3555 5890,3288 5890,3020 5890,2753 5941,2753 5991,2753 6042,2753 6042,2905 6042,3057 6042,3209 6109,3125 6176,3040 6243,2955 6309,2955 6374,2955 6440,2955 6352,3055 6264,3156 6176,3256 6265,3356 6354,3456 6442,3555 6377,3555 6311,3555 6245,3555 Z"/>
    </g>
   </g>
   <g class="com.sun.star.drawing.ClosedBezierShape">
    <g id="id4">
     <rect class="BoundingBox" stroke="none" fill="none" x="7254" y="2705" width="187" height="852"/>
     <path fill="rgb(255,255,255)" stroke="none" d="M 7347,2884 C 7320,2884 7298,2875 7281,2858 7263,2841 7254,2820 7254,2795 7254,2770 7263,2748 7281,2732 7298,2714 7320,2706 7347,2706 7374,2706 7396,2714 7414,2732 7431,2748 7440,2770 7440,2795 7440,2820 7431,2841 7414,2858 7396,2875 7374,2884 7347,2884 Z M 7422,2955 L 7422,3556 7270,3556 7270,2955 7422,2955 Z"/>
    </g>
   </g>
   <g class="com.sun.star.drawing.ClosedBezierShape">
    <g id="id5">
     <rect class="BoundingBox" stroke="none" fill="none" x="8329" y="2753" width="553" height="804"/>
     <path fill="rgb(255,255,255)" stroke="none" d="M 8684,3555 C 8616,3470 8548,3385 8481,3300 8481,3385 8481,3470 8481,3555 8430,3555 8380,3555 8329,3555 8329,3288 8329,3020 8329,2753 8380,2753 8430,2753 8481,2753 8481,2905 8481,3057 8481,3209 8548,3125 8615,3040 8682,2955 8748,2955 8813,2955 8879,2955 8791,3055 8703,3156 8615,3256 8704,3356 8793,3456 8881,3555 8816,3555 8750,3555 8684,3555 Z"/>
    </g>
   </g>
   <g class="com.sun.star.drawing.ClosedBezierShape">
    <g id="id6">
     <rect class="BoundingBox" stroke="none" fill="none" x="9672" y="2945" width="618" height="621"/>
     <path fill="rgb(255,255,255)" stroke="none" d="M 9976,3565 C 9919,3565 9867,3552 9820,3527 9774,3501 9738,3465 9711,3418 9685,3371 9672,3316 9672,3255 9672,3194 9686,3139 9713,3092 9740,3045 9777,3009 9824,2983 9871,2958 9923,2945 9981,2945 10038,2945 10091,2958 10138,2983 10185,3009 10222,3045 10249,3092 10276,3139 10289,3194 10289,3255 10289,3316 10275,3371 10248,3418 10220,3465 10182,3501 10135,3527 10088,3552 10035,3565 9976,3565 Z M 9976,3433 C 10004,3433 10030,3426 10054,3413 10078,3399 10097,3379 10112,3353 10126,3326 10133,3293 10133,3255 10133,3198 10118,3154 10088,3123 10058,3093 10022,3077 9979,3077 9935,3077 9899,3093 9870,3123 9840,3154 9826,3198 9826,3255 9826,3312 9840,3356 9869,3387 9897,3417 9933,3433 9976,3433 Z"/>
    </g>
   </g>
   <g class="com.sun.star.drawing.ClosedBezierShape">
    <g id="id7">
     <rect class="BoundingBox" stroke="none" fill="none" x="12126" y="2806" width="359" height="751"/>
     <path fill="rgb(255,255,255)" stroke="none" d="M 12350,3080 L 12350,3371 C 12350,3391 12355,3406 12365,3415 12374,3424 12391,3428 12414,3428 L 12484,3428 12484,3556 12389,3556 C 12261,3556 12197,3494 12197,3369 L 12197,3080 12126,3080 12126,2955 12197,2955 12197,2806 12350,2806 12350,2955 12484,2955 12484,3080 12350,3080 Z"/>
    </g>
   </g>
   <g class="com.sun.star.drawing.ClosedBezierShape">
    <g id="id8">
     <rect class="BoundingBox" stroke="none" fill="none" x="13345" y="2945" width="337" height="611"/>
     <path fill="rgb(255,255,255)" stroke="none" d="M 13497,3047 C 13516,3015 13542,2990 13573,2972 13604,2954 13640,2945 13681,2945 L 13681,3104 13641,3104 C 13593,3104 13557,3116 13533,3138 13509,3161 13497,3200 13497,3255 L 13497,3555 13345,3555 13345,2955 13497,2955 13497,3047 Z"/>
    </g>
   </g>
   <g class="com.sun.star.drawing.ClosedBezierShape">
    <g id="id9">
     <rect class="BoundingBox" stroke="none" fill="none" x="14506" y="2945" width="627" height="621"/>
     <path fill="rgb(255,255,255)" stroke="none" d="M 14506,3253 C 14506,3192 14518,3138 14542,3091 14566,3044 14599,3008 14641,2983 14682,2958 14729,2945 14780,2945 14825,2945 14864,2954 14897,2972 14931,2990 14958,3013 14978,3040 L 14978,2954 15131,2954 15131,3555 14978,3555 14978,3467 C 14959,3495 14932,3519 14897,3537 14863,3556 14824,3565 14779,3565 14728,3565 14682,3552 14641,3526 14599,3500 14566,3463 14542,3416 14518,3368 14506,3314 14506,3253 Z M 14978,3255 C 14978,3218 14971,3186 14956,3160 14942,3134 14923,3114 14898,3099 14873,3085 14847,3078 14819,3078 14791,3078 14765,3085 14741,3099 14717,3113 14698,3133 14683,3159 14668,3185 14661,3217 14661,3253 14661,3289 14668,3320 14683,3347 14698,3374 14717,3395 14742,3410 14766,3424 14792,3431 14819,3431 14847,3431 14873,3424 14898,3410 14923,3396 14942,3376 14956,3350 14971,3323 14978,3292 14978,3255 Z"/>
    </g>
   </g>
   <g class="com.sun.star.drawing.ClosedBezierShape">
    <g id="id10">
     <rect class="BoundingBox" stroke="none" fill="none" x="16029" y="2945" width="573" height="612"/>
     <path fill="rgb(255,255,255)" stroke="none" d="M 16361,2945 C 16433,2945 16491,2968 16535,3013 16579,3058 16601,3121 16601,3202 L 16601,3556 16449,3556 16449,3223 C 16449,3175 16437,3138 16413,3113 16390,3087 16357,3074 16316,3074 16274,3074 16241,3087 16217,3113 16193,3138 16181,3175 16181,3223 L 16181,3556 16029,3556 16029,2955 16181,2955 16181,3029 C 16201,3003 16227,2982 16258,2967 16289,2952 16324,2945 16361,2945 Z"/>
    </g>
   </g>
   <g class="com.sun.star.drawing.ClosedBezierShape">
    <g id="id11">
     <rect class="BoundingBox" stroke="none" fill="none" x="17469" y="2945" width="500" height="621"/>
     <path fill="rgb(255,255,255)" stroke="none" d="M 17732,3565 C 17683,3565 17639,3557 17600,3539 17561,3521 17530,3497 17507,3467 17485,3436 17472,3403 17470,3366 L 17623,3366 C 17626,3389 17637,3408 17657,3423 17677,3439 17701,3446 17731,3446 17760,3446 17782,3440 17799,3429 17815,3417 17823,3402 17823,3384 17823,3365 17813,3350 17793,3340 17773,3331 17742,3320 17699,3308 17654,3298 17617,3286 17589,3275 17560,3263 17536,3245 17515,3222 17494,3198 17484,3166 17484,3125 17484,3092 17494,3061 17513,3034 17532,3006 17559,2985 17595,2969 17631,2953 17673,2945 17721,2945 17793,2945 17850,2963 17892,2999 17935,3034 17958,3083 17963,3144 L 17818,3144 C 17815,3120 17806,3101 17788,3087 17770,3072 17746,3065 17717,3065 17689,3065 17668,3070 17654,3081 17639,3091 17631,3105 17631,3123 17631,3143 17641,3158 17662,3169 17682,3179 17713,3190 17756,3201 17799,3212 17835,3223 17863,3235 17891,3246 17916,3264 17936,3288 17957,3312 17967,3344 17968,3384 17968,3419 17959,3450 17939,3478 17920,3505 17893,3527 17857,3542 17821,3558 17780,3565 17732,3565 Z"/>
    </g>
   </g>
   <g class="com.sun.star.drawing.ClosedBezierShape">
    <g id="id12">
     <rect class="BoundingBox" stroke="none" fill="none" x="18845" y="2753" width="154" height="804"/>
     <path fill="rgb(255,255,255)" stroke="none" d="M 18998,2753 C 18998,3020 18998,3288 18998,3555 18947,3555 18897,3555 18846,3555 18846,3288 18846,3020 18846,2753 18897,2753 18947,2753 18998,2753 Z"/>
    </g>
   </g>
   <g class="com.sun.star.drawing.ClosedBezierShape">
    <g id="id13">
     <rect class="BoundingBox" stroke="none" fill="none" x="19862" y="2945" width="627" height="621"/>
     <path fill="rgb(255,255,255)" stroke="none" d="M 19862,3253 C 19862,3192 19874,3138 19898,3091 19922,3044 19955,3008 19997,2983 20038,2958 20085,2945 20136,2945 20181,2945 20220,2954 20253,2972 20287,2990 20314,3013 20334,3040 L 20334,2954 20487,2954 20487,3555 20334,3555 20334,3467 C 20315,3495 20288,3519 20253,3537 20219,3556 20180,3565 20135,3565 20084,3565 20038,3552 19997,3526 19955,3500 19922,3463 19898,3416 19874,3368 19862,3314 19862,3253 Z M 20334,3255 C 20334,3218 20327,3186 20312,3160 20298,3134 20279,3114 20254,3099 20229,3085 20203,3078 20175,3078 20147,3078 20121,3085 20097,3099 20073,3113 20054,3133 20039,3159 20024,3185 20017,3217 20017,3253 20017,3289 20024,3320 20039,3347 20054,3374 20073,3395 20098,3410 20122,3424 20148,3431 20175,3431 20203,3431 20229,3424 20254,3410 20279,3396 20298,3376 20312,3350 20327,3323 20334,3292 20334,3255 Z"/>
    </g>
   </g>
   <g class="com.sun.star.drawing.ClosedBezierShape">
    <g id="id14">
     <rect class="BoundingBox" stroke="none" fill="none" x="21338" y="2806" width="360" height="751"/>
     <path fill="rgb(255,255,255)" stroke="none" d="M 21562,3080 L 21562,3371 C 21562,3391 21567,3406 21577,3415 21586,3424 21603,3428 21626,3428 L 21696,3428 21696,3556 21601,3556 C 21473,3556 21409,3494 21409,3369 L 21409,3080 21338,3080 21338,2955 21409,2955 21409,2806 21562,2806 21562,2955 21696,2955 21696,3080 21562,3080 Z"/>
    </g>
   </g>
   <g class="com.sun.star.drawing.ClosedBezierShape">
    <g id="id15">
     <rect class="BoundingBox" stroke="none" fill="none" x="22545" y="2705" width="188" height="852"/>
     <path fill="rgb(255,255,255)" stroke="none" d="M 22638,2884 C 22611,2884 22589,2875 22572,2858 22554,2841 22545,2820 22545,2795 22545,2770 22554,2748 22572,2732 22589,2714 22611,2706 22638,2706 22665,2706 22687,2714 22705,2732 22722,2748 22731,2770 22731,2795 22731,2820 22722,2841 22705,2858 22687,2875 22665,2884 22638,2884 Z M 22713,2955 L 22713,3556 22561,3556 22561,2955 22713,2955 Z"/>
    </g>
   </g>
   <g class="com.sun.star.drawing.ClosedBezierShape">
    <g id="id16">
     <rect class="BoundingBox" stroke="none" fill="none" x="23578" y="2945" width="618" height="621"/>
     <path fill="rgb(255,255,255)" stroke="none" d="M 23882,3565 C 23825,3565 23773,3552 23726,3527 23680,3501 23644,3465 23617,3418 23591,3371 23578,3316 23578,3255 23578,3194 23592,3139 23619,3092 23646,3045 23683,3009 23730,2983 23777,2958 23829,2945 23887,2945 23944,2945 23997,2958 24044,2983 24091,3009 24128,3045 24155,3092 24182,3139 24195,3194 24195,3255 24195,3316 24181,3371 24154,3418 24126,3465 24088,3501 24041,3527 23994,3552 23941,3565 23882,3565 Z M 23882,3433 C 23910,3433 23936,3426 23960,3413 23984,3399 24003,3379 24018,3353 24032,3326 24039,3293 24039,3255 24039,3198 24024,3154 23994,3123 23964,3093 23928,3077 23885,3077 23841,3077 23805,3093 23776,3123 23746,3154 23732,3198 23732,3255 23732,3312 23746,3356 23775,3387 23803,3417 23839,3433 23882,3433 Z"/>
    </g>
   </g>
   <g class="com.sun.star.drawing.ClosedBezierShape">
    <g id="id17">
     <rect class="BoundingBox" stroke="none" fill="none" x="25061" y="2945" width="573" height="612"/>
     <path fill="rgb(255,255,255)" stroke="none" d="M 25393,2945 C 25465,2945 25523,2968 25567,3013 25611,3058 25633,3121 25633,3202 L 25633,3556 25481,3556 25481,3223 C 25481,3175 25469,3138 25445,3113 25422,3087 25389,3074 25348,3074 25306,3074 25273,3087 25249,3113 25225,3138 25213,3175 25213,3223 L 25213,3556 25061,3556 25061,2955 25213,2955 25213,3029 C 25233,3003 25259,2982 25290,2967 25321,2952 25356,2945 25393,2945 Z"/>
    </g>
   </g>
   <g class="com.sun.star.drawing.ClosedBezierShape">
    <g id="id18">
     <rect class="BoundingBox" stroke="none" fill="none" x="26501" y="2945" width="499" height="621"/>
     <path fill="rgb(255,255,255)" stroke="none" d="M 26763,3565 C 26714,3565 26670,3557 26631,3539 26592,3521 26561,3497 26538,3467 26516,3436 26503,3403 26501,3366 L 26654,3366 C 26657,3389 26668,3408 26688,3423 26708,3439 26732,3446 26762,3446 26791,3446 26813,3440 26830,3429 26846,3417 26854,3402 26854,3384 26854,3365 26844,3350 26824,3340 26804,3331 26773,3320 26730,3308 26685,3298 26648,3286 26620,3275 26591,3263 26567,3245 26546,3222 26525,3198 26515,3166 26515,3125 26515,3092 26525,3061 26544,3034 26563,3006 26590,2985 26626,2969 26662,2953 26704,2945 26752,2945 26824,2945 26881,2963 26923,2999 26966,3034 26989,3083 26994,3144 L 26849,3144 C 26846,3120 26837,3101 26819,3087 26801,3072 26777,3065 26748,3065 26720,3065 26699,3070 26685,3081 26670,3091 26662,3105 26662,3123 26662,3143 26672,3158 26693,3169 26713,3179 26744,3190 26787,3201 26830,3212 26866,3223 26894,3235 26922,3246 26947,3264 26967,3288 26988,3312 26998,3344 26999,3384 26999,3419 26990,3450 26970,3478 26951,3505 26924,3527 26888,3542 26852,3558 26811,3565 26763,3565 Z"/>
    </g>
   </g>
  </g>
 </g>
</svg>